<svg xmlns="http://www.w3.org/2000/svg" viewBox="0 0 512 512" width="256px" height="256px"><path class="st0" d="M354.178 282.058c-22.11 14.417-47.05 9.41-67.511-8.107l-46.98 46.98-43.208-43.208 54.932-54.932c-15.064-43.244 11.181-73.721 27.159-83.323 27.007-16.192 14.044-29.146 2.762-31.009-15.256-2.5-36.08-.148-56.818 18.004-37.962 33.184-21.43 82.266-101.472 97.274C36.325 239.997-3.824 290.387 6.2 353.16c7.793 48.852 45.585 84.47 59.222 98.118 13.637 13.633 49.266 51.425 98.11 59.222 62.791 10.024 112.112-30.329 129.43-116.847 12.26-61.204 69.83-38.155 91.1-83.885 14.407-30.958-10.858-40.108-29.884-27.71zM129.516 439.753l-51.847-51.84 23.035-23.035 51.851 51.847-23.039 23.028zm42.486-42.475l-51.851-51.855 21.781-21.771 51.851 51.848-21.781 21.778zm37.264-37.275l-51.84-51.848 21.77-21.778 51.844 51.84-21.774 21.786z" fill="#4b4b4b"/><path class="st0" fill="#4b4b4b" d="M205.12 277.723l34.567 34.575 177.146-177.142-34.568-34.568zM497.474 25.691c-11.928-11.932-30.032-13.175-40.426-2.774l-38.903 38.895c-10.396 10.408-30.129 30.129-30.129 30.129s10.016 10.016 23.054 23.042c27.362 27.37 41.738 22.14 58.349-3.773 9.417-34.767 20.435-34.693 30.832-45.086 10.398-10.393 9.159-28.487-2.777-40.433zM434.206 23.212a2.75 2.75 0 0 0 3.887.015L451.36 9.956a2.733 2.733 0 0 0 0-3.89L446.1.799c-1.069-1.066-2.804-1.066-3.891 0l-13.264 13.27a2.761 2.761 0 0 0 0 3.891l5.261 5.252zM408.437 48.999a2.753 2.753 0 0 0 3.88 0l13.275-13.27a2.761 2.761 0 0 0 0-3.891l-5.26-5.252a2.737 2.737 0 0 0-3.887 0l-13.274 13.27c-1.069 1.065-1.069 2.804.008 3.891l5.258 5.252zM382.654 74.764a2.77 2.77 0 0 0 3.891.015l13.27-13.278a2.753 2.753 0 0 0 0-3.884l-5.259-5.259a2.737 2.737 0 0 0-3.887 0l-13.274 13.264a2.753 2.753 0 0 0 .007 3.891l5.252 5.251z"/></svg>