<svg xmlns="http://www.w3.org/2000/svg" viewBox="0 0 512 512" width="256px" height="256px"><path d="M488.875 101.766c-1.391-3.016-3.844-5.547-6.969-6.984-6.484-3-13.891-5.531-22.156-7.781-12.406-3.328-26.766-5.938-42.578-7.766-15.813-1.797-33.078-2.797-51.188-2.797-24.156 0-46.797 1.75-66.516 4.875-9.875 1.563-18.984 3.469-27.266 5.688-5.844 1.594-11.234 3.328-16.203 5.281-4.969-1.953-10.359-3.688-16.219-5.281-12.391-3.328-26.75-5.938-42.563-7.766-15.828-1.797-33.094-2.797-51.203-2.797-24.156 0-46.797 1.75-66.516 4.875C69.656 82.875 60.516 84.781 52.25 87c-8.266 2.25-15.672 4.781-22.172 7.781-3.125 1.438-5.563 3.969-6.953 6.984C12.313 104.469 0 109.531 0 118.516v260.422c0 25.047 20.313 45.359 45.359 45.359h182.797v2.359c0 4.922 3.969 8.906 8.875 8.906h37.938c4.906 0 8.875-3.984 8.875-8.906v-2.359h182.797c25.047 0 45.359-20.313 45.359-45.359V118.516c0-8.985-12.312-14.047-23.125-16.75zM241.781 372.781c-.672-.188-1.313-.391-2-.594-12.391-3.344-26.75-5.938-42.563-7.766-15.828-1.797-33.094-2.797-51.203-2.797-24.156 0-46.797 1.766-66.516 4.875-9.844 1.563-18.984 3.469-27.25 5.688-.688.203-1.328.406-2 .594V117.344c2.875-1 6.016-1.953 9.406-2.875 10.656-2.875 23.75-5.297 38.391-6.969 14.672-1.688 30.891-2.609 47.969-2.609 22.766 0 44.047 1.672 62.063 4.516 9.016 1.422 17.203 3.156 24.297 5.063 3.406.922 6.547 1.875 9.406 2.875v255.436zm219.953 0c-.672-.188-1.297-.391-1.984-.594-12.406-3.344-26.766-5.938-42.578-7.766-15.813-1.797-33.078-2.797-51.188-2.797-24.156 0-46.797 1.766-66.516 4.875-9.875 1.563-18.984 3.469-27.266 5.688-.672.203-1.313.406-1.984.594V117.344c2.859-1 6-1.953 9.406-2.875 10.641-2.875 23.719-5.297 38.375-6.969 14.672-1.688 30.906-2.609 47.984-2.609 22.75 0 44.031 1.672 62.063 4.516 9.016 1.422 17.188 3.156 24.297 5.063 3.391.922 6.531 1.875 9.391 2.875v255.436z" fill="#4b4b4b"/></svg>
