<svg xmlns="http://www.w3.org/2000/svg" viewBox="0 0 512 512" width="256px" height="256px"><path d="M454.588 223.298c-15.573-6.699-67.901-46.34-108.06-75.581 39.715-17.378 79.542-45.406 80.43-57.038 1.472-19.08-52.855-48.432-67.512-54.317-14.712-5.866-58.055 10.29-76.599 9.309-27.889-1.471-1.48 45.508 13.196 45.508 14.694 0 47.247-10.772 51.652-3.433 3.59 5.996 2.498 22.291-19.312 46.83-6.782-4.904-12.778-9.188-17.646-12.565-33.766-23.494-57.25-58.722-57.25-58.722l-5.876-14.676c-5.867-14.676-101.296 1.462-101.296 1.462s0-11.743-13.205-19.081c-13.213-7.328-58.722-10.271-55.779 10.281 2.942 20.551-59.647 129.593-67.532 139.456-5.866 7.33 1.481 13.196 22.014 2.934 6.07-3.044 15.175-10.77 25.151-20.403 3.46 9.549 8.078 21.541 13.037 32.146 4.867 10.419 6.755 20.505 10.679 26.372-33.904 29.314-66.05 50.134-73.814 54.363-16.139 8.8-5.877 16.147 52.855 11.742 16.961-1.276 37.152-12.011 57.602-27.723 2.258 6.348 8.55 9.818 18.728 7.172 33.738-8.809 174.685-23.494 193.756-32.294 4.266-1.953 5.959-5.524 5.709-9.864 48.266 39.558 78.598 77.644 99.363 72.916 96.938-22.022 101.334-39.65 19.709-74.794zm-342.966-30.499c-8.198-16.879-26.742-36.255-37.624-46.804a916.663 916.663 0 0 0 15.148-16.452c7.726 16.795 20.561 39.067 37.411 47.099a384.22 384.22 0 0 1-14.935 16.157zm44.065-56.446c-18.219-9.864-40.492-18.636-52.373-23.06 5.478-6.431 9.382-11.307 10.724-13.306 5.858-8.808 55.752-4.404 54.308 7.329-2.878 9.717-7.236 19.433-12.659 29.037zm133.027 50.246c-27.446 1.434-110.93 22.153-118.592 23.438 29.426-33.099 53.18-68.761 59.888-89.508 3.701 10.105 28.574 36.55 60.896 66.032-.73.002-1.462.002-2.192.038z" fill="#4b4b4b"/><path d="M272.39 323.401c35.996-6.7 65.569-12.03 73.564-12.03 20.57 0 42.566 4.405 48.46-5.866 5.858-10.272-4.414-52.855-64.606-51.375-60.194 1.462-212.836 35.228-212.836 35.228-39.641 10.262-63.145 0-60.184 14.685 3.258 16.397 8.79 48.432 57.25 45.49 3.303-.185 7.171-.556 11.456-1.037-6.468 4.738-15.333 10.771-27.622 18.664-41.084 26.409-61.738 24.605-70.454 57.242-5.866 22.023 17.619 57.25 71.936 29.36 54.299-27.89 57.25-102.75 57.25-102.75.352-1.48.175-3.979-.379-6.801 12.066-1.906 25.427-4.174 39.28-6.654-.38 10.105-.732 21.524-.732 26.659 0 10.281 5.867 73.398 1.462 71.926-4.404-1.462-48.451-19.08-48.451-19.08s-13.214 2.943-4.404 14.676c8.809 11.752 41.103 26.427 55.788 41.112 14.685 14.667 55.788 22.014 68.992-1.47 13.205-23.486 2.943-74.86 0-96.883-2.1-15.804 1.834-39.16 4.23-51.096z" fill="#4b4b4b"/><path d="M334.221 320.181c-13.213-1.48-29.37 4.405-19.081 22.005 13.214 22.698 44.047 71.953 39.624 83.687-4.405 11.743-15.768 14.316-9.901 17.248 5.876 2.924 34.866 32.665 70.084 12.114 35.237-20.552 46.979-41.095 5.885-85.141-41.103-44.047-73.406-48.433-86.611-49.913z" fill="#4b4b4b"/></svg>