<!--?xml version="1.0" encoding="utf-8"?-->
<!-- Generator: Adobe Illustrator 18.1.1, SVG Export Plug-In . SVG Version: 6.00 Build 0)  -->

<svg version="1.1" xmlns="http://www.w3.org/2000/svg" viewBox="0 0 512 512" width="32" height="32" xml:space="preserve">
<g style="fill:#ffb11b">
	<path d="M58.112,144.856c2.156,0,4.45,0.077,7.209,0.246l1.138,0.077l104.097,25.381L145.174,66.472l-0.068-1.138
		c-0.178-2.735-0.254-5.036-0.254-7.218c0-2.488,0.102-4.942,0.271-7.388c-24.965-2.963-50.983,5.103-70.139,24.26
		c-19.149,19.149-27.215,45.175-24.252,70.132C53.169,144.966,55.623,144.856,58.112,144.856z"/>
	<path d="M446.688,145.102c2.768-0.169,5.044-0.246,7.218-0.246c2.471,0,4.925,0.11,7.371,0.272
		c2.972-24.965-5.095-50.992-24.26-70.14c-19.148-19.156-45.174-27.223-70.139-24.26c0.162,2.446,0.281,4.9,0.281,7.388
		c0,2.216-0.085,4.586-0.255,7.243l-0.085,1.121l-25.373,104.08l104.097-25.381L446.688,145.102z"/>
	<path d="M453.906,367.153c-2.224,0-4.535-0.076-7.26-0.254l-1.13-0.077L341.445,341.45l25.373,104.079l0.085,1.121
		c0.17,2.65,0.255,5.027,0.255,7.252c0,2.48-0.119,4.925-0.281,7.371c24.965,2.971,50.991-5.095,70.139-24.252
		c19.148-19.156,27.215-45.174,24.252-70.139C458.831,367.042,456.377,367.153,453.906,367.153z"/>
	<path d="M65.363,366.898c-2.734,0.178-5.027,0.254-7.251,0.254c-2.488,0-4.942-0.102-7.38-0.271
		c-2.963,24.965,5.103,50.983,24.252,70.139c19.156,19.157,45.174,27.223,70.139,24.252c-0.153-2.446-0.271-4.891-0.271-7.371
		c0-2.199,0.076-4.501,0.254-7.243l0.068-1.13l25.381-104.079L66.484,366.822L65.363,366.898z"/>
	<path d="M427.082,171.077c-1.86,0-3.702,0.085-5.537,0.204l-106.873,26.06l26.052-106.873
		c0.128-1.834,0.196-3.685,0.196-5.536C340.919,38.025,302.894,0,256.005,0c-46.898,0-84.923,38.025-84.923,84.932
		c0,1.851,0.084,3.702,0.195,5.536l26.052,106.873l-106.856-26.06c-1.843-0.119-3.676-0.204-5.545-0.204
		c-46.898,0-84.923,38.025-84.923,84.923c0,46.907,38.025,84.932,84.923,84.932c1.851,0,3.702-0.085,5.545-0.212l106.856-26.052
		l-26.052,106.873c-0.11,1.835-0.195,3.677-0.195,5.536c0,46.898,38.024,84.923,84.923,84.923c46.889,0,84.914-38.024,84.914-84.923
		c0-1.859-0.068-3.702-0.196-5.536l-26.052-106.873l106.873,26.052c1.826,0.127,3.677,0.212,5.537,0.212
		c46.898,0,84.914-38.024,84.914-84.932C511.996,209.102,473.988,171.077,427.082,171.077z M255.996,303.832
		c-26.417,0-47.832-21.415-47.832-47.832c0-26.425,21.416-47.84,47.832-47.84c26.425,0,47.84,21.416,47.84,47.84
		C303.836,282.417,282.421,303.832,255.996,303.832z"/>
</g>
</svg>
