<svg xmlns="http://www.w3.org/2000/svg" viewBox="0 0 512 512" width="256px" height="256px"><path class="st0" d="M371.884 0c-56.563 0-102.406 56.594-102.406 120.469 0 38.875 18.281 73.156 40.625 94.5 19.609 18.75 31.656 33.188 34.063 64.516v206.563c0 14.328 11.625 25.953 25.953 25.953h3.516c14.328 0 25.953-11.625 25.953-25.953V279.484c2.406-31.328 14.453-45.766 34.063-64.516 22.344-21.344 40.625-55.625 40.625-94.5C474.274 56.594 428.415 0 371.884 0zM188.587 24.547v109.375c0 6.984-5.656 12.656-12.641 12.656h-3.391c-6.969 0-12.641-5.672-12.641-12.656V24.047c0-18.016-12.125-23.422-23.766-23.422-11.625 0-23.75 5.406-23.75 23.422v109.875c0 6.984-5.672 12.656-12.656 12.656h-3.375c-6.984 0-12.641-5.672-12.641-12.656V24.547c0-32.266-46-31.172-46 .359v104.438c-.219 58 13.641 73.047 36.516 91.125 18.438 14.563 34.203 22.875 34.203 59.031v206.547c0 14.328 11.609 25.953 25.953 25.953h3.516c14.328 0 25.953-11.625 25.953-25.953V279.5c0-36.156 15.75-44.469 34.188-59.031 22.891-18.078 36.75-33.125 36.531-91.125V24.906c.001-31.531-45.999-32.625-45.999-.359z" fill="#4b4b4b"/></svg>
