<svg xmlns="http://www.w3.org/2000/svg" viewBox="0 0 512 512" width="256px" height="256px"><path class="st0" d="M33.394 458.311h242.247V318.635h116.323v139.676h86.642V222.61H33.394v235.701zm87.296-139.676h69.838v69.838H120.69v-69.838z" fill="#4b4b4b"/><path class="st0" d="M310.836 368.565c-5.877 0-10.64 4.77-10.64 10.644v35.46c0 5.873 4.764 10.636 10.64 10.636 5.874 0 10.637-4.763 10.637-10.636v-35.46c0-5.874-4.763-10.644-10.637-10.644zM230.104 53.689h-71.511l-14.616 142.732h82.243zM368.026 196.421L353.408 53.689h-71.512l3.885 142.732zM512 196.421L478.606 53.689h-73.399l22.384 142.732zM106.794 53.689h-73.4L0 196.421h84.409z" fill="#4b4b4b"/></svg>
