<svg xmlns="http://www.w3.org/2000/svg" viewBox="0 0 512 512" width="256px" height="256px"><path class="st0" d="M242.646 141.06L76.41 324.636c-15.446 17.081-14.804 43.256 1.48 59.531l5.742 5.731c16.274 16.284 42.468 16.946 59.54 1.49l183.576-166.237c-19.471-5.401-37.855-15.705-53.136-30.975-15.261-15.27-25.575-33.645-30.966-53.116z" fill="#4b4b4b"/><path class="st0" d="M284.185 456.329l-.248-.249-.021-.01-.103-.114c-.269-.217-.456-.382-.58-.528-15.27-14.898-35.104-22.388-54.916-22.388-20.072 0-40.277 7.698-55.599 23.03l-22.285 22.264c-10.056 10.077-23.144 15.064-36.334 15.064-13.16.042-26.258-4.965-36.314-15.042l-.021-.021c-10.035-10.035-15.042-23.112-15.042-36.292 0-13.201 5.008-26.279 15.064-36.356l-13.139-13.128c-26.144 26.143-27.22 67.796-3.332 95.233l-.062.332 3.394 3.383c6.828 6.828 14.711 11.918 23.154 15.364 8.401 3.434 17.36 5.132 26.299 5.132a69.933 69.933 0 0 0 49.474-20.506l22.285-22.295c11.773-11.722 27.065-17.536 42.459-17.557 13.605 0 27.168 4.572 38.238 13.74l-.766 2.121 5.979 2.803c9.85 10.316 15.354 23.216 16.399 36.5l18.529-1.468c-1.427-17.826-8.938-35.279-22.471-48.895-.02-.045-.02-.106-.041-.117zM436.807 31.001C395.94-9.843 329.976-10.34 288.562 29.584c-.549.445-1.024.921-1.521 1.418a104.194 104.194 0 0 0-11.111 13.119c-29.827 41.393-26.112 99.424 11.111 136.658 37.235 37.235 95.244 40.918 136.607 11.101a102.688 102.688 0 0 0 13.139-11.132c.497-.497.994-.983 1.448-1.542 39.914-41.436 39.438-107.348-1.428-148.205zm-74.903 151.794c-19.74-.02-39.387-7.469-54.399-22.491-15.022-15.022-22.492-34.679-22.512-54.419 0-12.539 3.042-25.12 9.146-36.397 14.422 18.985 30.686 37.607 48.635 55.558 17.939 17.95 36.572 34.214 55.516 48.688-11.329 6.082-23.827 9.061-36.386 9.061zm54.438-22.491c-.703.714-1.448 1.387-2.162 2.049-19.884-14.774-39.49-31.658-58.278-50.447-18.808-18.808-35.693-38.382-50.487-58.268.683-.745 1.356-1.49 2.069-2.193 15.033-14.971 34.68-22.471 54.44-22.471 19.74.01 39.387 7.47 54.419 22.502 15.002 15.012 22.461 34.648 22.492 54.388 0 19.761-7.491 39.428-22.493 54.44z" fill="#4b4b4b"/></svg>
