<svg xmlns="http://www.w3.org/2000/svg" viewBox="0 0 512 512" width="256px" height="256px"><path d="M474.172 170.816a147.845 147.845 0 0 0-54.642-49.728c-2.553-32.525-16.926-61.799-38.837-83.347a131.644 131.644 0 0 0-41.5-27.619C323.594 3.604 306.451 0 288.533 0c-21.177 0-41.268 5.036-58.996 13.968-14.814 7.458-27.955 17.642-38.906 29.86a99.31 99.31 0 0 0-30.49-4.786c-13.676 0-26.782 2.777-38.681 7.812-17.85 7.555-33 20.145-43.718 35.993-10.709 15.848-16.978 35.042-16.97 55.573a99.106 99.106 0 0 0 4.811 30.49 124.052 124.052 0 0 0-34.852 38.233c-10.693 18.28-16.823 39.605-16.814 62.265 0 17.038 3.449 33.336 9.718 48.132 9.39 22.212 25.049 41.06 44.778 54.392 19.728 13.331 43.579 21.134 69.145 21.126 15.763 0 30.869-2.984 44.761-8.381C180.784 431.851 169.833 512 169.833 512H327.75s-11.245-81.2-12.866-118.235a146.881 146.881 0 0 0 36.12 4.501c20.272 0 39.656-4.122 57.246-11.562 26.42-11.176 48.84-29.809 64.706-53.271 15.848-23.463 25.127-51.832 25.127-82.244 0-29.62-8.795-57.29-23.911-80.373zM462.54 298.302c-9.175 21.704-24.54 40.209-43.873 53.263-19.332 13.055-42.544 20.66-67.662 20.669-11.054 0-21.738-1.475-31.887-4.243 13.391-38.087 52.892-91.142 52.892-91.142l-10.408-13.021s-23.437 38.182-33.852 33.845c-10.408-4.338-6.07-52.064-6.07-52.064h-20.824c3.474 32.973-10.408 68.55-29.499 59.005-19.09-9.546-9.554-77.225-9.554-77.225l-18.211-2.604s-8.683 79.829-29.507 88.512c-26.524 11.046-46.856-29.507-67.688-72.026l-19.091 9.545c5.208 14.753 44.261 83.296 52.944 102.386.396.897.75 2.07 1.035 3.476-13.141 6.613-27.956 10.346-43.726 10.346-13.512 0-26.325-2.733-37.992-7.665-17.496-7.398-32.43-19.798-42.959-35.38-10.528-15.598-16.659-34.309-16.667-54.572.008-17.962 4.828-34.689 13.262-49.133a98.264 98.264 0 0 1 34.888-35.008l10.08-5.932-4.838-10.658a72.922 72.922 0 0 1-6.536-30.258c0-10.166 2.052-19.771 5.759-28.541 5.553-13.15 14.884-24.376 26.593-32.284 11.727-7.907 25.764-12.511 40.992-12.52 10.46 0 20.333 2.181 29.317 6.114l9.321 4.07 6.2-8.054c9.648-12.529 22.04-22.832 36.267-29.99 14.21-7.156 30.231-11.184 47.286-11.184 14.435 0 28.128 2.889 40.614 8.114 18.728 7.83 34.767 20.945 46.166 37.475 11.416 16.538 18.211 36.422 18.59 57.962l.138 8.183 7.441 3.414c20.807 9.563 38.466 24.877 50.909 43.89 12.434 19.022 19.652 41.665 19.652 66.119.001 16.756-3.38 32.639-9.502 47.116z" fill="#4b4b4b"/></svg>