<svg xmlns="http://www.w3.org/2000/svg" viewBox="0 0 512 512" width="32px" height="32px"><path d="M452.938 19.112a11.477 11.477 0 0 0-10.813-.953L188.641 127.034l-.016 194.282 253.5 108.891c3.531 1.516 7.594 1.156 10.813-.969s5.156-5.703 5.156-9.563V28.69c0-3.859-1.906-7.469-5.156-9.578zM167.063 127.034H45.844c-25.313 0-45.828 20.516-45.828 45.828L0 275.472c0 25.328 20.531 45.844 45.844 45.844h121.219V127.034zM475.625 186.44v86.25c15.625 0 36.375-19.313 36.375-43.11 0-23.828-20.75-43.14-36.375-43.14zM147.969 342.753H66.031L99.656 478.44c1.844 9.5 10.156 16.328 19.813 16.328h46.578c6.359 0 12.359-3 16.172-8.125a20.122 20.122 0 0 0 3.188-17.813l-37.438-126.077z" fill="#ffb11b"/></svg>
