<svg xmlns="http://www.w3.org/2000/svg" viewBox="0 0 512 512" width="256px" height="256px"><path class="st0" d="M156.332 192.056c-5.923 8.064-5.048 18.79 1.968 23.937l84.616 65.279c.365.273.784.438 1.184.674.183.1.347.209.529.291 7.308 4.074 17.004 1.914 23.455-5.194.182-.2.383-.337.565-.537l103.714-122.694c5.905-6.625 5.996-16.147.256-21.259-5.759-5.121-15.199-3.891-21.086 2.724l-96.935 103.56-74.846-52.122c-7-5.147-17.497-2.76-23.42 5.341zM52.964 255.995c0-4.474.086-8.956.56-13.358H.41c-.323 4.401-.41 8.884-.41 13.358 0 4.566.087 8.967.41 13.367h53.115c-.475-4.4-.561-8.884-.561-13.367zM511.599 242.637H457.92v26.725H511.599c.324-4.4.401-8.884.401-13.367 0-4.474-.077-8.957-.401-13.358zM146.905 84.733c5.016-3.17 10.143-6.168 15.346-8.82.719-.356 1.33-.71 2.031-.975l-26.47-45.998a214.211 214.211 0 0 0-19.345 11.126l26.485 45.998c.628-.446 1.329-.884 1.953-1.331zM28.972 137.802l45.98 26.471 11.126-19.326-45.998-26.49a205.03 205.03 0 0 0-11.108 19.345zM436.096 349.74c-2.752 5.203-5.658 10.324-8.921 15.262-.437.629-.897 1.33-1.33 1.95l45.998 26.47a228.23 228.23 0 0 0 11.202-19.226l-45.892-26.562c-.355.694-.715 1.405-1.057 2.106zM75.922 349.658l-1.057-2.023-45.893 26.471c3.262 6.634 7.044 13.057 11.108 19.317l45.998-26.47c-.433-.62-.893-1.321-1.331-1.95-3.166-4.939-6.169-10.06-8.825-15.345zM483.046 137.802c-3.357-6.633-7.139-13.075-11.202-19.344l-45.998 26.489 11.212 19.326 45.988-26.471zM146.905 427.157c-.624-.438-1.325-.884-1.954-1.33l-26.485 45.998c6.265 4.064 12.726 7.855 19.345 11.226l26.47-46.008c-.702-.254-1.312-.619-2.031-.966a169.018 169.018 0 0 1-15.345-8.92zM347.64 74.838l19.332 11.226 26.484-45.998c-6.264-4.054-12.629-7.763-19.24-11.126L347.64 74.838zM242.637 458.475v53.042c4.411.401 8.885.483 13.363.483 4.484 0 8.962-.082 13.368-.483V457.92h-26.731v.555zM269.368 53.524V.482C264.962.082 260.483 0 256 0c-4.478 0-8.952.082-13.363.482V54.08h26.731v-.556zM347.64 437.144l26.576 45.907a235.83 235.83 0 0 0 19.24-11.226l-26.484-45.998-19.332 11.317z" fill="#4b4b4b"/></svg>